<svg id="svg" version="1.1" xmlns="http://www.w3.org/2000/svg" xmlns:xlink="http://www.w3.org/1999/xlink" width="400" height="400" viewBox="0, 0, 400,400"><g id="svgg"><path id="path0" d="M174.400 0.400 C 174.400 0.647,172.342 0.800,169.027 0.800 C 164.005 0.800,163.637 0.852,163.400 1.600 C 163.170 2.326,162.795 2.400,159.373 2.400 C 155.867 2.400,155.600 2.457,155.600 3.200 C 155.600 3.930,155.333 4.000,152.563 4.000 C 149.862 4.000,149.502 4.089,149.316 4.800 C 149.131 5.509,148.770 5.600,146.153 5.600 C 143.467 5.600,143.200 5.672,143.200 6.400 C 143.200 7.111,142.933 7.200,140.800 7.200 C 139.030 7.200,138.400 7.344,138.400 7.750 C 138.400 8.321,136.737 8.800,134.750 8.800 C 134.042 8.800,133.600 9.011,133.600 9.349 C 133.600 9.718,132.925 9.963,131.546 10.096 C 130.217 10.223,129.362 10.524,129.126 10.946 C 128.902 11.347,128.245 11.600,127.427 11.600 C 126.430 11.600,126.041 11.802,125.884 12.400 C 125.709 13.070,125.338 13.200,123.600 13.200 C 121.862 13.200,121.491 13.330,121.316 14.000 C 121.152 14.627,120.770 14.800,119.553 14.800 C 118.267 14.800,118.000 14.937,118.000 15.600 C 118.000 16.267,117.733 16.400,116.400 16.400 C 115.067 16.400,114.800 16.533,114.800 17.200 C 114.800 17.867,114.533 18.000,113.200 18.000 C 111.867 18.000,111.600 18.133,111.600 18.800 C 111.600 19.448,111.333 19.600,110.200 19.600 C 109.067 19.600,108.800 19.752,108.800 20.400 C 108.800 21.067,108.533 21.200,107.200 21.200 C 105.867 21.200,105.600 21.333,105.600 22.000 C 105.600 22.667,105.333 22.800,104.000 22.800 C 102.667 22.800,102.400 22.933,102.400 23.600 C 102.400 24.267,102.133 24.400,100.800 24.400 C 99.667 24.400,99.200 24.570,99.200 24.982 C 99.200 25.331,98.637 25.669,97.794 25.827 C 97.021 25.972,96.256 26.309,96.094 26.576 C 95.932 26.842,95.485 27.176,95.100 27.318 C 94.715 27.459,94.400 27.851,94.400 28.187 C 94.400 28.719,93.161 29.046,91.900 28.847 C 91.735 28.821,91.600 29.160,91.600 29.600 C 91.600 30.133,91.333 30.400,90.800 30.400 C 90.267 30.400,90.000 30.667,90.000 31.200 C 90.000 31.867,89.733 32.000,88.400 32.000 C 87.067 32.000,86.800 32.133,86.800 32.800 C 86.800 33.333,86.533 33.600,86.000 33.600 C 85.467 33.600,85.200 33.867,85.200 34.400 C 85.200 35.067,84.933 35.200,83.600 35.200 C 82.720 35.200,82.021 35.335,82.047 35.500 C 82.187 36.384,81.916 36.800,81.200 36.800 C 80.667 36.800,80.400 37.067,80.400 37.600 C 80.400 38.242,80.133 38.400,79.047 38.400 C 78.030 38.400,77.641 38.599,77.484 39.200 C 77.369 39.640,76.988 40.000,76.637 40.000 C 76.267 40.000,76.000 40.335,76.000 40.800 C 76.000 41.333,75.733 41.600,75.200 41.600 C 74.756 41.600,74.400 41.867,74.400 42.200 C 74.400 42.533,74.044 42.800,73.600 42.800 C 73.085 42.800,72.800 43.067,72.800 43.549 C 72.800 44.113,72.406 44.361,71.200 44.554 C 70.235 44.708,69.600 45.027,69.600 45.358 C 69.600 45.660,69.240 46.001,68.800 46.116 C 68.360 46.231,68.000 46.612,68.000 46.963 C 68.000 47.333,67.665 47.600,67.200 47.600 C 66.667 47.600,66.400 47.867,66.400 48.400 C 66.400 48.933,66.133 49.200,65.600 49.200 C 65.067 49.200,64.800 49.467,64.800 50.000 C 64.800 50.533,64.533 50.800,64.000 50.800 C 63.467 50.800,63.200 51.067,63.200 51.600 C 63.200 52.133,62.933 52.400,62.400 52.400 C 61.867 52.400,61.600 52.667,61.600 53.200 C 61.600 53.733,61.333 54.000,60.800 54.000 C 60.267 54.000,60.000 54.267,60.000 54.800 C 60.000 55.244,59.733 55.600,59.400 55.600 C 59.067 55.600,58.800 55.956,58.800 56.400 C 58.800 56.933,58.533 57.200,58.000 57.200 C 57.467 57.200,57.200 57.467,57.200 58.000 C 57.200 58.533,56.933 58.800,56.400 58.800 C 55.956 58.800,55.600 59.067,55.600 59.400 C 55.600 59.733,55.244 60.000,54.800 60.000 C 54.267 60.000,54.000 60.267,54.000 60.800 C 54.000 61.333,53.733 61.600,53.200 61.600 C 52.667 61.600,52.400 61.867,52.400 62.400 C 52.400 62.933,52.133 63.200,51.600 63.200 C 51.067 63.200,50.800 63.467,50.800 64.000 C 50.800 64.533,50.533 64.800,50.000 64.800 C 49.476 64.800,49.200 65.067,49.200 65.573 C 49.200 65.998,48.840 66.460,48.400 66.600 C 47.960 66.740,47.600 67.091,47.600 67.380 C 47.600 67.670,47.240 68.001,46.800 68.116 C 46.360 68.231,46.000 68.612,46.000 68.963 C 46.000 69.313,45.732 69.600,45.405 69.600 C 45.020 69.600,44.719 70.165,44.554 71.200 C 44.361 72.406,44.113 72.800,43.549 72.800 C 43.067 72.800,42.800 73.085,42.800 73.600 C 42.800 74.044,42.533 74.400,42.200 74.400 C 41.867 74.400,41.600 74.756,41.600 75.200 C 41.600 75.733,41.333 76.000,40.800 76.000 C 40.335 76.000,40.000 76.267,40.000 76.637 C 40.000 76.988,39.640 77.369,39.200 77.484 C 38.599 77.641,38.400 78.030,38.400 79.047 C 38.400 80.133,38.242 80.400,37.600 80.400 C 37.067 80.400,36.800 80.667,36.800 81.200 C 36.800 81.916,36.384 82.187,35.500 82.047 C 35.335 82.021,35.200 82.720,35.200 83.600 C 35.200 84.933,35.067 85.200,34.400 85.200 C 33.867 85.200,33.600 85.467,33.600 86.000 C 33.600 86.533,33.333 86.800,32.800 86.800 C 32.133 86.800,32.000 87.067,32.000 88.400 C 32.000 89.733,31.867 90.000,31.200 90.000 C 30.683 90.000,30.400 90.267,30.400 90.753 C 30.400 91.174,30.041 91.600,29.589 91.719 C 29.142 91.836,28.804 92.082,28.836 92.266 C 29.037 93.407,28.723 94.400,28.163 94.400 C 27.812 94.400,27.431 94.760,27.316 95.200 C 27.201 95.640,26.858 96.000,26.553 96.000 C 26.075 96.000,25.758 97.363,25.964 98.534 C 25.996 98.718,25.658 98.964,25.211 99.081 C 24.572 99.248,24.400 99.622,24.400 100.847 C 24.400 102.133,24.263 102.400,23.600 102.400 C 22.933 102.400,22.800 102.667,22.800 104.000 C 22.800 105.333,22.667 105.600,22.000 105.600 C 21.333 105.600,21.200 105.867,21.200 107.200 C 21.200 108.533,21.067 108.800,20.400 108.800 C 19.752 108.800,19.600 109.067,19.600 110.200 C 19.600 111.333,19.448 111.600,18.800 111.600 C 18.133 111.600,18.000 111.867,18.000 113.200 C 18.000 114.533,17.867 114.800,17.200 114.800 C 16.533 114.800,16.400 115.067,16.400 116.400 C 16.400 117.733,16.267 118.000,15.600 118.000 C 14.937 118.000,14.800 118.267,14.800 119.553 C 14.800 120.770,14.627 121.152,14.000 121.316 C 13.330 121.491,13.200 121.862,13.200 123.600 C 13.200 125.338,13.070 125.709,12.400 125.884 C 11.775 126.048,11.600 126.430,11.600 127.634 C 11.600 128.839,11.469 129.125,11.000 128.945 C 10.608 128.794,10.379 128.972,10.340 129.457 C 10.306 129.866,10.239 130.560,10.190 131.000 C 10.141 131.440,10.078 132.205,10.051 132.700 C 10.022 133.211,9.741 133.600,9.400 133.600 C 8.974 133.600,8.798 134.036,8.795 135.100 C 8.787 137.189,8.405 138.400,7.753 138.400 C 7.344 138.400,7.200 139.023,7.200 140.800 C 7.200 142.933,7.111 143.200,6.400 143.200 C 5.671 143.200,5.600 143.467,5.600 146.200 C 5.600 148.913,5.525 149.200,4.816 149.200 C 4.110 149.200,4.021 149.529,3.916 152.500 C 3.814 155.397,3.714 155.785,3.094 155.681 C 2.705 155.616,2.412 155.706,2.441 155.881 C 2.897 158.590,2.312 164.800,1.600 164.800 C 0.844 164.800,0.800 165.067,0.800 169.600 C 0.800 172.533,0.644 174.400,0.400 174.400 C 0.138 174.400,0.000 183.200,0.000 200.000 C 0.000 216.800,0.138 225.600,0.400 225.600 C 0.647 225.600,0.800 227.658,0.800 230.973 C 0.800 235.995,0.852 236.363,1.600 236.600 C 2.326 236.830,2.400 237.205,2.400 240.627 C 2.400 242.702,2.535 244.379,2.700 244.353 C 3.855 244.170,4.000 244.515,4.000 247.437 C 4.000 250.138,4.089 250.498,4.800 250.684 C 5.509 250.869,5.600 251.230,5.600 253.847 C 5.600 256.533,5.672 256.800,6.400 256.800 C 7.111 256.800,7.200 257.067,7.200 259.200 C 7.200 260.970,7.344 261.600,7.750 261.600 C 8.321 261.600,8.800 263.263,8.800 265.250 C 8.800 266.006,9.006 266.400,9.400 266.400 C 9.780 266.400,10.011 266.802,10.031 267.500 C 10.080 269.265,10.298 270.024,10.970 270.767 C 11.316 271.150,11.600 272.051,11.600 272.769 C 11.600 273.738,11.806 274.129,12.400 274.284 C 13.065 274.458,13.200 274.830,13.200 276.484 C 13.200 278.138,13.335 278.510,14.000 278.684 C 14.627 278.848,14.800 279.230,14.800 280.447 C 14.800 281.733,14.937 282.000,15.600 282.000 C 16.267 282.000,16.400 282.267,16.400 283.600 C 16.400 284.933,16.533 285.200,17.200 285.200 C 17.867 285.200,18.000 285.467,18.000 286.800 C 18.000 288.133,18.133 288.400,18.800 288.400 C 19.452 288.400,19.600 288.667,19.600 289.837 C 19.600 290.938,19.787 291.324,20.400 291.484 C 21.001 291.641,21.200 292.030,21.200 293.047 C 21.200 294.133,21.358 294.400,22.000 294.400 C 22.667 294.400,22.800 294.667,22.800 296.000 C 22.800 297.333,22.933 297.600,23.600 297.600 C 24.267 297.600,24.400 297.867,24.400 299.200 C 24.400 300.457,24.550 300.800,25.100 300.801 C 25.604 300.801,25.826 301.165,25.892 302.100 C 25.942 302.814,26.257 303.599,26.592 303.843 C 26.926 304.088,27.200 304.481,27.200 304.717 C 27.200 304.953,27.560 305.260,28.000 305.400 C 28.702 305.623,29.059 306.760,28.847 308.100 C 28.821 308.265,29.160 308.400,29.600 308.400 C 30.133 308.400,30.400 308.667,30.400 309.200 C 30.400 309.733,30.667 310.000,31.200 310.000 C 31.867 310.000,32.000 310.267,32.000 311.600 C 32.000 312.933,32.133 313.200,32.800 313.200 C 33.333 313.200,33.600 313.467,33.600 314.000 C 33.600 314.533,33.867 314.800,34.400 314.800 C 35.067 314.800,35.200 315.067,35.200 316.400 C 35.200 317.733,35.333 318.000,36.000 318.000 C 36.533 318.000,36.800 318.267,36.800 318.800 C 36.800 319.333,37.067 319.600,37.600 319.600 C 38.242 319.600,38.400 319.867,38.400 320.953 C 38.400 321.970,38.599 322.359,39.200 322.516 C 39.640 322.631,40.000 323.000,40.000 323.336 C 40.000 323.671,40.360 324.060,40.800 324.200 C 41.240 324.340,41.600 324.712,41.600 325.027 C 41.600 325.342,41.870 325.600,42.200 325.600 C 42.533 325.600,42.800 325.956,42.800 326.400 C 42.800 326.915,43.067 327.200,43.549 327.200 C 44.113 327.200,44.361 327.594,44.554 328.800 C 44.719 329.835,45.020 330.400,45.405 330.400 C 45.732 330.400,46.000 330.687,46.000 331.037 C 46.000 331.388,46.360 331.769,46.800 331.884 C 47.243 332.000,47.600 332.430,47.600 332.847 C 47.600 333.333,47.883 333.600,48.400 333.600 C 48.933 333.600,49.200 333.867,49.200 334.400 C 49.200 334.933,49.467 335.200,50.000 335.200 C 50.533 335.200,50.800 335.467,50.800 336.000 C 50.800 336.533,51.067 336.800,51.600 336.800 C 52.133 336.800,52.400 337.067,52.400 337.600 C 52.400 338.133,52.667 338.400,53.200 338.400 C 53.733 338.400,54.000 338.667,54.000 339.200 C 54.000 339.733,54.267 340.000,54.800 340.000 C 55.333 340.000,55.600 340.267,55.600 340.800 C 55.600 341.333,55.867 341.600,56.400 341.600 C 56.844 341.600,57.200 341.867,57.200 342.200 C 57.200 342.533,57.556 342.800,58.000 342.800 C 58.533 342.800,58.800 343.067,58.800 343.600 C 58.800 344.044,59.067 344.400,59.400 344.400 C 59.733 344.400,60.000 344.756,60.000 345.200 C 60.000 345.733,60.267 346.000,60.800 346.000 C 61.333 346.000,61.600 346.267,61.600 346.800 C 61.600 347.333,61.867 347.600,62.400 347.600 C 62.933 347.600,63.200 347.867,63.200 348.400 C 63.200 348.933,63.467 349.200,64.000 349.200 C 64.533 349.200,64.800 349.467,64.800 350.000 C 64.800 350.533,65.067 350.800,65.600 350.800 C 66.065 350.800,66.400 351.067,66.400 351.437 C 66.400 351.788,66.760 352.169,67.200 352.284 C 67.640 352.399,68.000 352.759,68.000 353.084 C 68.000 353.409,68.360 353.769,68.800 353.884 C 69.240 353.999,69.600 354.340,69.600 354.642 C 69.600 354.973,70.235 355.292,71.200 355.446 C 72.406 355.639,72.800 355.887,72.800 356.451 C 72.800 356.933,73.085 357.200,73.600 357.200 C 74.044 357.200,74.400 357.467,74.400 357.800 C 74.400 358.133,74.756 358.400,75.200 358.400 C 75.717 358.400,76.000 358.667,76.000 359.153 C 76.000 359.570,76.357 360.000,76.800 360.116 C 77.240 360.231,77.600 360.612,77.600 360.963 C 77.600 361.424,77.986 361.600,79.000 361.600 C 80.133 361.600,80.400 361.752,80.400 362.400 C 80.400 362.933,80.667 363.200,81.200 363.200 C 81.916 363.200,82.187 363.616,82.047 364.500 C 82.021 364.665,82.720 364.800,83.600 364.800 C 84.933 364.800,85.200 364.933,85.200 365.600 C 85.200 366.133,85.467 366.400,86.000 366.400 C 86.533 366.400,86.800 366.667,86.800 367.200 C 86.800 367.867,87.067 368.000,88.400 368.000 C 89.733 368.000,90.000 368.133,90.000 368.800 C 90.000 369.317,90.267 369.600,90.753 369.600 C 91.170 369.600,91.600 369.957,91.716 370.400 C 91.868 370.983,92.262 371.200,93.163 371.200 C 94.028 371.200,94.400 371.392,94.400 371.837 C 94.400 372.188,94.760 372.569,95.200 372.684 C 95.640 372.799,96.000 373.123,96.000 373.404 C 96.000 374.006,96.883 374.400,98.233 374.400 C 98.826 374.400,99.200 374.632,99.200 375.000 C 99.200 375.433,99.644 375.600,100.800 375.600 C 102.133 375.600,102.400 375.733,102.400 376.400 C 102.400 377.067,102.667 377.200,104.000 377.200 C 105.333 377.200,105.600 377.333,105.600 378.000 C 105.600 378.667,105.867 378.800,107.200 378.800 C 108.533 378.800,108.800 378.933,108.800 379.600 C 108.800 380.248,109.067 380.400,110.200 380.400 C 111.333 380.400,111.600 380.552,111.600 381.200 C 111.600 381.867,111.867 382.000,113.200 382.000 C 114.533 382.000,114.800 382.133,114.800 382.800 C 114.800 383.467,115.067 383.600,116.400 383.600 C 117.733 383.600,118.000 383.733,118.000 384.400 C 118.000 385.063,118.267 385.200,119.553 385.200 C 120.770 385.200,121.152 385.373,121.316 386.000 C 121.491 386.670,121.862 386.800,123.600 386.800 C 125.338 386.800,125.709 386.930,125.884 387.600 C 126.041 388.201,126.430 388.400,127.447 388.400 C 128.337 388.400,128.800 388.591,128.800 388.957 C 128.800 389.696,129.686 390.000,131.833 390.000 C 133.077 390.000,133.600 390.165,133.600 390.557 C 133.600 391.296,134.486 391.600,136.633 391.600 C 137.937 391.600,138.400 391.757,138.400 392.200 C 138.400 392.667,138.933 392.800,140.800 392.800 C 142.933 392.800,143.200 392.889,143.200 393.600 C 143.200 394.329,143.467 394.400,146.200 394.400 C 148.933 394.400,149.200 394.471,149.200 395.200 C 149.200 395.933,149.467 396.000,152.400 396.000 C 155.333 396.000,155.600 396.067,155.600 396.800 C 155.600 397.554,155.867 397.600,160.200 397.600 C 164.533 397.600,164.800 397.646,164.800 398.400 C 164.800 399.156,165.067 399.200,169.600 399.200 C 172.533 399.200,174.400 399.356,174.400 399.600 C 174.400 399.863,183.200 400.000,200.000 400.000 C 216.800 400.000,225.600 399.863,225.600 399.600 C 225.600 399.353,227.658 399.200,230.973 399.200 C 235.995 399.200,236.363 399.148,236.600 398.400 C 236.830 397.674,237.205 397.600,240.627 397.600 C 244.133 397.600,244.400 397.543,244.400 396.800 C 244.400 396.070,244.667 396.000,247.437 396.000 C 250.138 396.000,250.498 395.911,250.684 395.200 C 250.869 394.493,251.230 394.400,253.800 394.400 C 256.370 394.400,256.731 394.307,256.916 393.600 C 257.094 392.920,257.462 392.800,259.363 392.800 C 261.085 392.800,261.600 392.662,261.600 392.200 C 261.600 391.806,261.994 391.600,262.750 391.600 C 264.676 391.600,266.400 391.128,266.400 390.601 C 266.400 390.292,267.185 390.026,268.454 389.904 C 269.783 389.777,270.638 389.476,270.874 389.054 C 271.105 388.641,271.762 388.400,272.657 388.400 C 273.738 388.400,274.125 388.210,274.284 387.600 C 274.458 386.935,274.830 386.800,276.484 386.800 C 278.138 386.800,278.510 386.665,278.684 386.000 C 278.848 385.373,279.230 385.200,280.447 385.200 C 281.733 385.200,282.000 385.063,282.000 384.400 C 282.000 383.733,282.267 383.600,283.600 383.600 C 284.933 383.600,285.200 383.467,285.200 382.800 C 285.200 382.133,285.467 382.000,286.800 382.000 C 288.133 382.000,288.400 381.867,288.400 381.200 C 288.400 380.533,288.667 380.400,290.000 380.400 C 291.333 380.400,291.600 380.267,291.600 379.600 C 291.600 378.952,291.867 378.800,293.000 378.800 C 294.133 378.800,294.400 378.648,294.400 378.000 C 294.400 377.333,294.667 377.200,296.000 377.200 C 297.333 377.200,297.600 377.067,297.600 376.400 C 297.600 375.733,297.867 375.600,299.200 375.600 C 300.299 375.600,300.800 375.426,300.800 375.045 C 300.800 374.725,301.403 374.376,302.221 374.222 C 303.003 374.076,303.735 373.714,303.849 373.417 C 303.962 373.121,304.403 372.788,304.828 372.677 C 305.252 372.566,305.600 372.188,305.600 371.837 C 305.600 371.376,305.986 371.200,307.000 371.200 C 308.133 371.200,308.400 371.048,308.400 370.400 C 308.400 369.867,308.667 369.600,309.200 369.600 C 309.733 369.600,310.000 369.333,310.000 368.800 C 310.000 368.133,310.267 368.000,311.600 368.000 C 312.933 368.000,313.200 367.867,313.200 367.200 C 313.200 366.667,313.467 366.400,314.000 366.400 C 314.533 366.400,314.800 366.133,314.800 365.600 C 314.800 364.933,315.067 364.800,316.400 364.800 C 317.733 364.800,318.000 364.667,318.000 364.000 C 318.000 363.467,318.267 363.200,318.800 363.200 C 319.333 363.200,319.600 362.933,319.600 362.400 C 319.600 361.752,319.867 361.600,321.000 361.600 C 321.988 361.600,322.400 361.420,322.400 360.990 C 322.400 360.655,322.850 360.209,323.400 360.000 C 323.950 359.791,324.400 359.345,324.400 359.010 C 324.400 358.674,324.670 358.400,325.000 358.400 C 325.330 358.400,325.600 358.130,325.600 357.800 C 325.600 357.467,325.956 357.200,326.400 357.200 C 326.915 357.200,327.200 356.933,327.200 356.451 C 327.200 355.887,327.594 355.639,328.800 355.446 C 329.765 355.292,330.400 354.973,330.400 354.642 C 330.400 354.340,330.760 353.999,331.200 353.884 C 331.640 353.769,332.000 353.388,332.000 353.037 C 332.000 352.667,332.335 352.400,332.800 352.400 C 333.333 352.400,333.600 352.133,333.600 351.600 C 333.600 351.067,333.867 350.800,334.400 350.800 C 334.933 350.800,335.200 350.533,335.200 350.000 C 335.200 349.467,335.467 349.200,336.000 349.200 C 336.533 349.200,336.800 348.933,336.800 348.400 C 336.800 347.867,337.067 347.600,337.600 347.600 C 338.133 347.600,338.400 347.333,338.400 346.800 C 338.400 346.267,338.667 346.000,339.200 346.000 C 339.733 346.000,340.000 345.733,340.000 345.200 C 340.000 344.667,340.267 344.400,340.800 344.400 C 341.333 344.400,341.600 344.133,341.600 343.600 C 341.600 343.156,341.867 342.800,342.200 342.800 C 342.530 342.800,342.800 342.530,342.800 342.200 C 342.800 341.867,343.156 341.600,343.600 341.600 C 344.133 341.600,344.400 341.333,344.400 340.800 C 344.400 340.267,344.667 340.000,345.200 340.000 C 345.733 340.000,346.000 339.733,346.000 339.200 C 346.000 338.667,346.267 338.400,346.800 338.400 C 347.333 338.400,347.600 338.133,347.600 337.600 C 347.600 337.067,347.867 336.800,348.400 336.800 C 348.933 336.800,349.200 336.533,349.200 336.000 C 349.200 335.467,349.467 335.200,350.000 335.200 C 350.517 335.200,350.800 334.933,350.800 334.447 C 350.800 334.030,351.157 333.600,351.600 333.484 C 352.040 333.369,352.400 333.009,352.400 332.684 C 352.400 332.359,352.760 331.999,353.200 331.884 C 353.640 331.769,354.000 331.388,354.000 331.037 C 354.000 330.687,354.268 330.400,354.595 330.400 C 354.980 330.400,355.281 329.835,355.446 328.800 C 355.639 327.594,355.887 327.200,356.451 327.200 C 356.933 327.200,357.200 326.915,357.200 326.400 C 357.200 325.956,357.467 325.600,357.800 325.600 C 358.130 325.600,358.400 325.330,358.400 325.000 C 358.400 324.670,358.674 324.400,359.010 324.400 C 359.345 324.400,359.791 323.950,360.000 323.400 C 360.209 322.850,360.655 322.400,360.990 322.400 C 361.420 322.400,361.600 321.988,361.600 321.000 C 361.600 319.867,361.752 319.600,362.400 319.600 C 362.933 319.600,363.200 319.333,363.200 318.800 C 363.200 318.267,363.467 318.000,364.000 318.000 C 364.667 318.000,364.800 317.733,364.800 316.400 C 364.800 315.067,364.933 314.800,365.600 314.800 C 366.133 314.800,366.400 314.533,366.400 314.000 C 366.400 313.467,366.667 313.200,367.200 313.200 C 367.867 313.200,368.000 312.933,368.000 311.600 C 368.000 310.267,368.133 310.000,368.800 310.000 C 369.317 310.000,369.600 309.733,369.600 309.247 C 369.600 308.830,369.957 308.400,370.400 308.284 C 370.974 308.134,371.200 307.738,371.200 306.884 C 371.200 306.030,371.426 305.634,372.000 305.484 C 372.440 305.369,372.800 304.988,372.800 304.637 C 372.800 304.287,373.051 304.000,373.357 304.000 C 374.002 304.000,374.400 303.148,374.400 301.767 C 374.400 301.174,374.632 300.800,375.000 300.800 C 375.433 300.800,375.600 300.356,375.600 299.200 C 375.600 297.867,375.733 297.600,376.400 297.600 C 377.067 297.600,377.200 297.333,377.200 296.000 C 377.200 294.667,377.333 294.400,378.000 294.400 C 378.648 294.400,378.800 294.133,378.800 293.000 C 378.800 291.867,378.952 291.600,379.600 291.600 C 380.267 291.600,380.400 291.333,380.400 290.000 C 380.400 288.667,380.533 288.400,381.200 288.400 C 381.867 288.400,382.000 288.133,382.000 286.800 C 382.000 285.467,382.133 285.200,382.800 285.200 C 383.467 285.200,383.600 284.933,383.600 283.600 C 383.600 282.267,383.733 282.000,384.400 282.000 C 385.067 282.000,385.200 281.733,385.200 280.400 C 385.200 279.067,385.333 278.800,386.000 278.800 C 386.701 278.800,386.800 278.533,386.800 276.647 C 386.800 274.830,386.925 274.461,387.600 274.284 C 388.213 274.124,388.400 273.738,388.400 272.637 C 388.400 271.675,388.584 271.200,388.957 271.200 C 389.696 271.200,390.000 270.314,390.000 268.167 C 390.000 266.923,390.165 266.400,390.557 266.400 C 391.296 266.400,391.600 265.514,391.600 263.367 C 391.600 262.063,391.757 261.600,392.200 261.600 C 392.662 261.600,392.800 261.085,392.800 259.363 C 392.800 257.462,392.920 257.094,393.600 256.916 C 394.309 256.731,394.400 256.370,394.400 253.753 C 394.400 251.067,394.472 250.800,395.200 250.800 C 395.933 250.800,396.000 250.533,396.000 247.600 C 396.000 244.667,396.067 244.400,396.800 244.400 C 397.554 244.400,397.600 244.133,397.600 239.800 C 397.600 235.467,397.646 235.200,398.400 235.200 C 399.156 235.200,399.200 234.933,399.200 230.400 C 399.200 227.467,399.356 225.600,399.600 225.600 C 399.863 225.600,400.000 216.800,400.000 200.000 C 400.000 183.200,399.863 174.400,399.600 174.400 C 399.353 174.400,399.200 172.342,399.200 169.027 C 399.200 164.005,399.148 163.637,398.400 163.400 C 397.674 163.170,397.600 162.795,397.600 159.373 C 397.600 155.867,397.543 155.600,396.800 155.600 C 396.070 155.600,396.000 155.333,396.000 152.563 C 396.000 149.862,395.911 149.502,395.200 149.316 C 394.491 149.131,394.400 148.770,394.400 146.153 C 394.400 143.467,394.328 143.200,393.600 143.200 C 392.889 143.200,392.800 142.933,392.800 140.800 C 392.800 138.933,392.667 138.400,392.200 138.400 C 391.806 138.400,391.600 138.006,391.600 137.250 C 391.600 135.324,391.128 133.600,390.601 133.600 C 390.292 133.600,390.026 132.815,389.904 131.546 C 389.777 130.217,389.476 129.362,389.054 129.126 C 388.653 128.902,388.400 128.245,388.400 127.427 C 388.400 126.430,388.198 126.041,387.600 125.884 C 386.930 125.709,386.800 125.338,386.800 123.600 C 386.800 121.862,386.670 121.491,386.000 121.316 C 385.373 121.152,385.200 120.770,385.200 119.553 C 385.200 118.267,385.063 118.000,384.400 118.000 C 383.733 118.000,383.600 117.733,383.600 116.400 C 383.600 115.067,383.467 114.800,382.800 114.800 C 382.133 114.800,382.000 114.533,382.000 113.200 C 382.000 111.867,381.867 111.600,381.200 111.600 C 380.552 111.600,380.400 111.333,380.400 110.200 C 380.400 109.067,380.248 108.800,379.600 108.800 C 378.933 108.800,378.800 108.533,378.800 107.200 C 378.800 105.867,378.667 105.600,378.000 105.600 C 377.333 105.600,377.200 105.333,377.200 104.000 C 377.200 102.667,377.067 102.400,376.400 102.400 C 375.733 102.400,375.600 102.133,375.600 100.800 C 375.600 99.701,375.426 99.200,375.045 99.200 C 374.725 99.200,374.376 98.597,374.222 97.779 C 374.076 96.997,373.714 96.265,373.417 96.151 C 373.121 96.038,372.788 95.597,372.677 95.172 C 372.566 94.748,372.188 94.400,371.837 94.400 C 371.376 94.400,371.200 94.014,371.200 93.000 C 371.200 91.867,371.048 91.600,370.400 91.600 C 369.867 91.600,369.600 91.333,369.600 90.800 C 369.600 90.267,369.333 90.000,368.800 90.000 C 368.133 90.000,368.000 89.733,368.000 88.400 C 368.000 87.067,367.867 86.800,367.200 86.800 C 366.667 86.800,366.400 86.533,366.400 86.000 C 366.400 85.467,366.133 85.200,365.600 85.200 C 364.933 85.200,364.800 84.933,364.800 83.600 C 364.800 82.267,364.667 82.000,364.000 82.000 C 363.467 82.000,363.200 81.733,363.200 81.200 C 363.200 80.667,362.933 80.400,362.400 80.400 C 361.752 80.400,361.600 80.133,361.600 79.000 C 361.600 77.986,361.424 77.600,360.963 77.600 C 360.612 77.600,360.231 77.240,360.116 76.800 C 360.000 76.357,359.570 76.000,359.153 76.000 C 358.667 76.000,358.400 75.717,358.400 75.200 C 358.400 74.756,358.133 74.400,357.800 74.400 C 357.467 74.400,357.200 74.044,357.200 73.600 C 357.200 73.085,356.933 72.800,356.451 72.800 C 355.887 72.800,355.639 72.406,355.446 71.200 C 355.292 70.235,354.973 69.600,354.642 69.600 C 354.340 69.600,353.999 69.240,353.884 68.800 C 353.769 68.360,353.388 68.000,353.037 68.000 C 352.667 68.000,352.400 67.665,352.400 67.200 C 352.400 66.667,352.133 66.400,351.600 66.400 C 351.067 66.400,350.800 66.133,350.800 65.600 C 350.800 65.067,350.533 64.800,350.000 64.800 C 349.467 64.800,349.200 64.533,349.200 64.000 C 349.200 63.467,348.933 63.200,348.400 63.200 C 347.867 63.200,347.600 62.933,347.600 62.400 C 347.600 61.867,347.333 61.600,346.800 61.600 C 346.267 61.600,346.000 61.333,346.000 60.800 C 346.000 60.267,345.733 60.000,345.200 60.000 C 344.756 60.000,344.400 59.733,344.400 59.400 C 344.400 59.067,344.044 58.800,343.600 58.800 C 343.067 58.800,342.800 58.533,342.800 58.000 C 342.800 57.556,342.533 57.200,342.200 57.200 C 341.867 57.200,341.600 56.844,341.600 56.400 C 341.600 55.867,341.333 55.600,340.800 55.600 C 340.267 55.600,340.000 55.333,340.000 54.800 C 340.000 54.267,339.733 54.000,339.200 54.000 C 338.667 54.000,338.400 53.733,338.400 53.200 C 338.400 52.667,338.133 52.400,337.600 52.400 C 337.067 52.400,336.800 52.133,336.800 51.600 C 336.800 51.067,336.533 50.800,336.000 50.800 C 335.467 50.800,335.200 50.533,335.200 50.000 C 335.200 49.483,334.933 49.200,334.447 49.200 C 334.030 49.200,333.600 48.843,333.484 48.400 C 333.369 47.960,333.009 47.600,332.684 47.600 C 332.359 47.600,331.999 47.240,331.884 46.800 C 331.769 46.360,331.388 46.000,331.037 46.000 C 330.687 46.000,330.400 45.732,330.400 45.405 C 330.400 45.020,329.835 44.719,328.800 44.554 C 327.594 44.361,327.200 44.113,327.200 43.549 C 327.200 43.067,326.915 42.800,326.400 42.800 C 325.956 42.800,325.600 42.533,325.600 42.200 C 325.600 41.870,325.342 41.600,325.027 41.600 C 324.712 41.600,324.340 41.240,324.200 40.800 C 324.060 40.360,323.671 40.000,323.336 40.000 C 323.000 40.000,322.631 39.640,322.516 39.200 C 322.359 38.599,321.970 38.400,320.953 38.400 C 319.867 38.400,319.600 38.242,319.600 37.600 C 319.600 37.067,319.333 36.800,318.800 36.800 C 318.267 36.800,318.000 36.533,318.000 36.000 C 318.000 35.333,317.733 35.200,316.400 35.200 C 315.067 35.200,314.800 35.067,314.800 34.400 C 314.800 33.867,314.533 33.600,314.000 33.600 C 313.467 33.600,313.200 33.333,313.200 32.800 C 313.200 32.133,312.933 32.000,311.600 32.000 C 310.267 32.000,310.000 31.867,310.000 31.200 C 310.000 30.683,309.733 30.400,309.247 30.400 C 308.830 30.400,308.400 30.043,308.284 29.600 C 308.132 29.017,307.738 28.800,306.837 28.800 C 305.972 28.800,305.600 28.608,305.600 28.163 C 305.600 27.812,305.240 27.431,304.800 27.316 C 304.360 27.201,304.000 26.881,304.000 26.604 C 304.000 26.328,303.281 25.987,302.400 25.846 C 301.365 25.681,300.800 25.380,300.800 24.995 C 300.800 24.567,300.350 24.400,299.200 24.400 C 297.867 24.400,297.600 24.267,297.600 23.600 C 297.600 22.933,297.333 22.800,296.000 22.800 C 294.667 22.800,294.400 22.667,294.400 22.000 C 294.400 21.358,294.133 21.200,293.047 21.200 C 292.030 21.200,291.641 21.001,291.484 20.400 C 291.324 19.787,290.938 19.600,289.837 19.600 C 288.667 19.600,288.400 19.452,288.400 18.800 C 288.400 18.133,288.133 18.000,286.800 18.000 C 285.467 18.000,285.200 17.867,285.200 17.200 C 285.200 16.533,284.933 16.400,283.600 16.400 C 282.267 16.400,282.000 16.267,282.000 15.600 C 282.000 14.937,281.733 14.800,280.447 14.800 C 279.230 14.800,278.848 14.627,278.684 14.000 C 278.510 13.335,278.138 13.200,276.484 13.200 C 274.830 13.200,274.458 13.065,274.284 12.400 C 274.124 11.787,273.738 11.600,272.637 11.600 C 271.680 11.600,271.200 11.415,271.200 11.047 C 271.200 10.395,269.989 10.013,267.900 10.005 C 266.836 10.002,266.400 9.826,266.400 9.400 C 266.400 8.974,265.964 8.798,264.900 8.795 C 262.811 8.787,261.600 8.405,261.600 7.753 C 261.600 7.344,260.977 7.200,259.200 7.200 C 257.067 7.200,256.800 7.111,256.800 6.400 C 256.800 5.671,256.533 5.600,253.800 5.600 C 251.067 5.600,250.800 5.529,250.800 4.800 C 250.800 4.067,250.533 4.000,247.600 4.000 C 244.667 4.000,244.400 3.933,244.400 3.200 C 244.400 2.446,244.133 2.400,239.800 2.400 C 235.467 2.400,235.200 2.354,235.200 1.600 C 235.200 0.844,234.933 0.800,230.400 0.800 C 227.467 0.800,225.600 0.644,225.600 0.400 C 225.600 0.138,216.800 0.000,200.000 0.000 C 183.200 0.000,174.400 0.138,174.400 0.400 M237.000 85.203 C 238.320 85.421,243.900 85.871,249.400 86.202 C 254.900 86.533,261.200 86.977,263.400 87.188 C 265.600 87.399,268.631 87.578,270.135 87.586 C 274.892 87.611,279.190 90.193,281.811 94.600 C 283.408 97.285,283.555 103.870,282.082 106.684 C 281.597 107.610,281.200 108.603,281.200 108.890 C 281.200 109.177,280.840 110.084,280.400 110.904 C 279.960 111.725,279.600 112.577,279.600 112.796 C 279.600 113.015,278.682 115.491,277.560 118.297 C 276.438 121.104,275.325 123.940,275.087 124.600 C 274.849 125.260,273.697 128.268,272.527 131.285 C 271.357 134.302,270.400 137.096,270.400 137.495 C 270.400 138.182,271.433 140.084,276.138 148.063 C 278.812 152.598,282.274 158.592,282.758 159.525 C 283.240 160.453,284.240 162.105,286.313 165.400 C 286.590 165.840,287.090 166.740,287.424 167.400 C 287.759 168.060,288.430 169.262,288.916 170.071 C 291.012 173.557,294.648 179.725,295.200 180.728 C 295.728 181.687,296.615 183.204,299.800 188.589 C 302.576 193.282,304.780 197.267,305.559 199.000 C 306.053 200.100,306.667 201.360,306.924 201.800 C 307.698 203.127,307.797 213.591,307.057 215.885 C 306.717 216.938,306.331 218.520,306.198 219.400 C 306.066 220.280,305.623 222.620,305.213 224.600 C 304.804 226.580,304.259 229.370,304.004 230.800 C 301.423 245.242,299.372 249.445,292.600 254.166 C 289.016 256.664,281.381 259.200,277.444 259.200 C 276.733 259.200,274.812 259.544,273.175 259.964 C 271.539 260.384,269.210 260.855,268.000 261.011 C 262.095 261.773,260.318 262.524,258.800 264.900 C 255.950 269.360,255.220 270.320,252.342 273.391 C 249.674 276.239,245.867 279.481,242.331 281.917 C 238.744 284.389,231.871 288.800,231.607 288.800 C 231.442 288.800,230.866 289.147,230.326 289.572 C 228.821 290.756,220.571 295.081,215.400 297.397 C 214.080 297.988,212.280 298.798,211.400 299.197 C 210.520 299.596,209.440 300.020,209.000 300.138 C 208.560 300.256,206.940 300.830,205.400 301.414 C 202.014 302.698,198.175 303.887,195.175 304.580 C 193.952 304.862,192.332 305.294,191.575 305.539 C 190.819 305.784,188.220 306.444,185.800 307.005 C 183.380 307.567,180.500 308.279,179.400 308.588 C 178.300 308.897,176.364 309.335,175.099 309.561 C 173.833 309.788,172.483 310.139,172.099 310.341 C 171.714 310.543,170.410 310.839,169.200 311.000 C 167.990 311.161,166.677 311.462,166.282 311.670 C 165.887 311.878,164.267 312.298,162.682 312.603 C 160.003 313.120,158.580 313.465,152.800 314.999 C 143.737 317.405,141.677 317.714,136.372 317.463 C 130.896 317.204,127.412 315.661,123.400 311.717 C 120.386 308.753,119.137 306.009,116.429 296.400 C 115.964 294.750,115.387 292.860,115.148 292.200 C 114.908 291.540,114.533 290.280,114.314 289.400 C 114.096 288.520,113.575 286.897,113.158 285.792 C 112.741 284.688,112.400 283.466,112.400 283.077 C 112.400 282.688,111.698 280.172,110.840 277.485 C 109.981 274.798,108.892 271.250,108.419 269.600 C 107.946 267.950,107.298 265.790,106.979 264.800 C 106.660 263.810,106.123 262.010,105.785 260.800 C 103.421 252.343,103.129 251.085,101.836 243.800 C 101.484 241.820,100.942 238.940,100.630 237.400 C 98.410 226.438,98.621 194.789,100.955 188.450 C 101.310 187.487,101.606 186.407,101.614 186.050 C 101.621 185.692,101.975 184.680,102.400 183.800 C 102.825 182.920,103.179 182.028,103.186 181.818 C 103.194 181.609,104.001 179.791,104.980 177.779 L 106.759 174.120 106.203 172.160 C 105.897 171.082,105.182 168.940,104.614 167.400 C 104.046 165.860,103.034 162.980,102.366 161.000 C 101.697 159.020,100.914 156.950,100.626 156.400 C 100.339 155.850,99.985 154.743,99.841 153.940 C 99.697 153.137,99.269 151.877,98.890 151.140 C 97.755 148.931,97.907 138.790,99.110 136.516 C 99.599 135.590,100.000 134.560,100.000 134.228 C 100.000 132.576,104.715 126.945,109.200 123.241 C 111.439 121.392,113.113 119.924,118.679 114.933 C 127.471 107.047,129.050 105.894,133.479 104.117 L 136.200 103.026 173.187 103.013 L 210.174 103.000 211.587 100.939 C 212.364 99.806,213.554 98.096,214.232 97.139 C 214.909 96.183,215.947 94.680,216.537 93.800 C 219.759 89.002,220.910 87.864,224.200 86.223 C 227.297 84.678,231.712 84.326,237.000 85.203 M187.933 139.801 C 187.822 139.911,185.879 140.278,183.615 140.617 C 181.350 140.956,178.989 141.495,178.368 141.816 C 177.748 142.137,176.791 142.400,176.243 142.400 C 175.696 142.400,175.144 142.567,175.018 142.771 C 174.892 142.975,174.116 143.359,173.294 143.624 C 171.863 144.087,166.853 146.803,165.600 147.796 C 163.862 149.174,158.459 154.745,157.968 155.666 C 154.229 162.677,153.442 165.439,153.425 171.600 C 153.393 183.340,159.708 193.930,168.498 196.877 C 169.214 197.117,170.084 197.558,170.431 197.857 C 170.779 198.155,171.269 198.400,171.521 198.400 C 171.773 198.400,172.748 198.736,173.689 199.147 C 175.927 200.124,179.215 201.175,182.200 201.866 C 188.132 203.241,192.022 204.083,194.808 204.596 C 196.463 204.901,198.263 205.319,198.808 205.525 C 199.354 205.732,200.790 206.034,202.000 206.197 C 203.210 206.360,204.650 206.719,205.200 206.993 C 205.750 207.268,206.920 207.613,207.800 207.759 C 213.434 208.696,224.800 216.128,224.800 218.875 C 224.800 219.170,225.186 220.129,225.658 221.006 C 226.668 222.881,227.171 230.661,226.461 233.400 C 224.892 239.445,222.312 243.231,217.800 246.108 C 216.700 246.809,215.562 247.612,215.271 247.892 C 214.981 248.171,214.550 248.400,214.315 248.400 C 214.080 248.400,213.148 248.736,212.244 249.146 C 206.762 251.635,191.544 252.669,185.400 250.970 C 184.080 250.605,182.370 250.179,181.600 250.022 C 180.830 249.866,179.840 249.545,179.400 249.307 C 178.960 249.070,177.348 248.274,175.817 247.538 C 169.889 244.688,165.340 238.845,163.407 231.600 C 163.026 230.170,162.531 228.775,162.308 228.500 C 161.753 227.816,150.578 227.788,150.157 228.470 C 149.635 229.313,150.044 233.682,150.831 235.678 C 151.254 236.752,151.600 237.882,151.600 238.191 C 151.600 241.997,159.639 252.449,165.754 256.594 C 175.171 262.977,193.074 265.901,206.200 263.200 C 208.338 262.760,210.512 262.400,211.030 262.400 C 211.549 262.400,212.564 262.151,213.286 261.846 C 214.009 261.541,215.680 260.885,217.000 260.388 C 223.311 258.010,227.681 255.183,231.610 250.933 C 234.008 248.339,237.600 243.241,237.600 242.431 C 237.600 242.151,237.861 241.354,238.180 240.660 C 240.979 234.580,240.981 221.109,238.185 215.259 C 237.801 214.457,237.017 212.828,236.443 211.640 C 235.395 209.471,230.280 203.905,228.637 203.145 C 228.176 202.933,227.080 202.322,226.200 201.787 C 225.320 201.253,224.150 200.610,223.600 200.359 C 223.050 200.108,221.945 199.564,221.146 199.151 C 220.346 198.738,219.351 198.400,218.935 198.400 C 218.518 198.400,217.823 198.152,217.389 197.848 C 216.522 197.242,212.836 196.188,208.800 195.392 C 207.370 195.110,205.645 194.703,204.966 194.487 C 204.288 194.271,202.578 193.961,201.166 193.798 C 199.755 193.634,198.150 193.329,197.600 193.119 C 197.050 192.908,195.160 192.485,193.400 192.178 C 188.267 191.282,180.390 189.068,179.011 188.135 C 178.577 187.841,177.853 187.600,177.402 187.600 C 175.601 187.600,170.369 183.504,168.462 180.600 C 165.574 176.205,165.355 166.735,168.060 163.246 C 168.467 162.721,168.800 162.087,168.800 161.836 C 168.800 159.083,179.455 152.665,185.800 151.596 C 195.299 149.994,205.336 151.555,213.400 155.886 C 217.275 157.968,222.420 165.246,223.378 170.000 C 223.988 173.030,223.459 172.800,229.813 172.800 C 235.105 172.800,235.606 172.737,235.988 172.023 C 236.516 171.036,235.925 166.589,235.038 164.873 C 234.687 164.195,234.400 163.350,234.400 162.995 C 234.400 162.102,232.510 158.189,231.790 157.592 C 231.466 157.323,231.200 156.884,231.200 156.618 C 231.200 154.353,221.185 146.229,215.200 143.639 C 214.650 143.401,213.930 143.038,213.600 142.834 C 210.230 140.743,189.447 138.287,187.933 139.801 " stroke="none" fill="#714dbc" fill-rule="evenodd"></path><path id="path1" d="M224.200 86.223 C 220.910 87.864,219.759 89.002,216.537 93.800 C 215.947 94.680,214.909 96.183,214.232 97.139 C 213.554 98.096,212.364 99.806,211.587 100.939 L 210.174 103.000 173.187 103.013 L 136.200 103.026 133.479 104.117 C 129.050 105.894,127.471 107.047,118.679 114.933 C 113.113 119.924,111.439 121.392,109.200 123.241 C 104.715 126.945,100.000 132.576,100.000 134.228 C 100.000 134.560,99.599 135.590,99.110 136.516 C 97.907 138.790,97.755 148.931,98.890 151.140 C 99.269 151.877,99.697 153.137,99.841 153.940 C 99.985 154.743,100.339 155.850,100.626 156.400 C 100.914 156.950,101.697 159.020,102.366 161.000 C 103.034 162.980,104.046 165.860,104.614 167.400 C 105.182 168.940,105.897 171.082,106.203 172.160 L 106.759 174.120 104.980 177.779 C 104.001 179.791,103.194 181.609,103.186 181.818 C 103.179 182.028,102.825 182.920,102.400 183.800 C 101.975 184.680,101.621 185.692,101.614 186.050 C 101.606 186.407,101.310 187.487,100.955 188.450 C 98.621 194.789,98.410 226.438,100.630 237.400 C 100.942 238.940,101.484 241.820,101.836 243.800 C 103.129 251.085,103.421 252.343,105.785 260.800 C 106.123 262.010,106.660 263.810,106.979 264.800 C 107.298 265.790,107.946 267.950,108.419 269.600 C 108.892 271.250,109.981 274.798,110.840 277.485 C 111.698 280.172,112.400 282.688,112.400 283.077 C 112.400 283.466,112.741 284.688,113.158 285.792 C 113.575 286.897,114.096 288.520,114.314 289.400 C 114.533 290.280,114.908 291.540,115.148 292.200 C 115.387 292.860,115.964 294.750,116.429 296.400 C 119.137 306.009,120.386 308.753,123.400 311.717 C 127.412 315.661,130.896 317.204,136.372 317.463 C 141.677 317.714,143.737 317.405,152.800 314.999 C 158.580 313.465,160.003 313.120,162.682 312.603 C 164.267 312.298,165.887 311.878,166.282 311.670 C 166.677 311.462,167.990 311.161,169.200 311.000 C 170.410 310.839,171.714 310.543,172.099 310.341 C 172.483 310.139,173.833 309.788,175.099 309.561 C 176.364 309.335,178.300 308.897,179.400 308.588 C 180.500 308.279,183.380 307.567,185.800 307.005 C 188.220 306.444,190.819 305.784,191.575 305.539 C 192.332 305.294,193.952 304.862,195.175 304.580 C 198.175 303.887,202.014 302.698,205.400 301.414 C 206.940 300.830,208.560 300.256,209.000 300.138 C 209.440 300.020,210.520 299.596,211.400 299.197 C 212.280 298.798,214.080 297.988,215.400 297.397 C 220.571 295.081,228.821 290.756,230.326 289.572 C 230.866 289.147,231.442 288.800,231.607 288.800 C 231.871 288.800,238.744 284.389,242.331 281.917 C 245.867 279.481,249.674 276.239,252.342 273.391 C 255.220 270.320,255.950 269.360,258.800 264.900 C 260.318 262.524,262.095 261.773,268.000 261.011 C 269.210 260.855,271.539 260.384,273.175 259.964 C 274.812 259.544,276.733 259.200,277.444 259.200 C 281.381 259.200,289.016 256.664,292.600 254.166 C 299.372 249.445,301.423 245.242,304.004 230.800 C 304.259 229.370,304.804 226.580,305.213 224.600 C 305.623 222.620,306.066 220.280,306.198 219.400 C 306.331 218.520,306.717 216.938,307.057 215.885 C 307.797 213.591,307.698 203.127,306.924 201.800 C 306.667 201.360,306.053 200.100,305.559 199.000 C 304.780 197.267,302.576 193.282,299.800 188.589 C 296.615 183.204,295.728 181.687,295.200 180.728 C 294.648 179.725,291.012 173.557,288.916 170.071 C 288.430 169.262,287.759 168.060,287.424 167.400 C 287.090 166.740,286.590 165.840,286.313 165.400 C 284.240 162.105,283.240 160.453,282.758 159.525 C 282.274 158.592,278.812 152.598,276.138 148.063 C 271.433 140.084,270.400 138.182,270.400 137.495 C 270.400 137.096,271.357 134.302,272.527 131.285 C 273.697 128.268,274.849 125.260,275.087 124.600 C 275.325 123.940,276.438 121.104,277.560 118.297 C 278.682 115.491,279.600 113.015,279.600 112.796 C 279.600 112.577,279.960 111.725,280.400 110.904 C 280.840 110.084,281.200 109.177,281.200 108.890 C 281.200 108.603,281.597 107.610,282.082 106.684 C 283.555 103.870,283.408 97.285,281.811 94.600 C 279.190 90.193,274.892 87.611,270.135 87.586 C 268.631 87.578,265.600 87.399,263.400 87.188 C 261.200 86.977,254.900 86.533,249.400 86.202 C 243.900 85.871,238.320 85.421,237.000 85.203 C 231.712 84.326,227.297 84.678,224.200 86.223 M203.947 140.248 C 207.871 140.985,212.709 142.280,213.600 142.834 C 213.930 143.038,214.650 143.401,215.200 143.639 C 221.185 146.229,231.200 154.353,231.200 156.618 C 231.200 156.884,231.466 157.323,231.790 157.592 C 232.510 158.189,234.400 162.102,234.400 162.995 C 234.400 163.350,234.687 164.195,235.038 164.873 C 235.925 166.589,236.516 171.036,235.988 172.023 C 235.606 172.737,235.105 172.800,229.813 172.800 C 223.459 172.800,223.988 173.030,223.378 170.000 C 222.420 165.246,217.275 157.968,213.400 155.886 C 202.119 149.826,188.089 149.298,177.231 154.525 C 174.701 155.743,168.800 160.860,168.800 161.836 C 168.800 162.087,168.467 162.721,168.060 163.246 C 165.355 166.735,165.574 176.205,168.462 180.600 C 170.369 183.504,175.601 187.600,177.402 187.600 C 177.853 187.600,178.577 187.841,179.011 188.135 C 180.390 189.068,188.267 191.282,193.400 192.178 C 195.160 192.485,197.050 192.908,197.600 193.119 C 198.150 193.329,199.755 193.634,201.166 193.798 C 202.578 193.961,204.288 194.271,204.966 194.487 C 205.645 194.703,207.370 195.110,208.800 195.392 C 212.836 196.188,216.522 197.242,217.389 197.848 C 217.823 198.152,218.518 198.400,218.935 198.400 C 219.351 198.400,220.346 198.738,221.146 199.151 C 221.945 199.564,223.050 200.108,223.600 200.359 C 224.150 200.610,225.320 201.253,226.200 201.787 C 227.080 202.322,228.176 202.933,228.637 203.145 C 230.280 203.905,235.395 209.471,236.443 211.640 C 237.017 212.828,237.801 214.457,238.185 215.259 C 240.981 221.109,240.979 234.580,238.180 240.660 C 237.861 241.354,237.600 242.151,237.600 242.431 C 237.600 243.241,234.008 248.339,231.610 250.933 C 227.681 255.183,223.311 258.010,217.000 260.388 C 215.680 260.885,214.009 261.541,213.286 261.846 C 212.564 262.151,211.549 262.400,211.030 262.400 C 210.512 262.400,208.338 262.760,206.200 263.200 C 193.074 265.901,175.171 262.977,165.754 256.594 C 159.639 252.449,151.600 241.997,151.600 238.191 C 151.600 237.882,151.254 236.752,150.831 235.678 C 150.044 233.682,149.635 229.313,150.157 228.470 C 150.578 227.788,161.753 227.816,162.308 228.500 C 162.531 228.775,163.026 230.170,163.407 231.600 C 165.340 238.845,169.889 244.688,175.817 247.538 C 177.348 248.274,178.960 249.070,179.400 249.307 C 179.840 249.545,180.830 249.866,181.600 250.022 C 182.370 250.179,184.080 250.605,185.400 250.970 C 191.544 252.669,206.762 251.635,212.244 249.146 C 213.148 248.736,214.080 248.400,214.315 248.400 C 214.550 248.400,214.981 248.171,215.271 247.892 C 215.562 247.612,216.700 246.809,217.800 246.108 C 222.312 243.231,224.892 239.445,226.461 233.400 C 227.171 230.661,226.668 222.881,225.658 221.006 C 225.186 220.129,224.800 219.170,224.800 218.875 C 224.800 216.128,213.434 208.696,207.800 207.759 C 206.920 207.613,205.750 207.268,205.200 206.993 C 204.650 206.719,203.210 206.360,202.000 206.197 C 200.790 206.034,199.354 205.732,198.808 205.525 C 198.263 205.319,196.463 204.901,194.808 204.596 C 192.022 204.083,188.132 203.241,182.200 201.866 C 179.215 201.175,175.927 200.124,173.689 199.147 C 172.748 198.736,171.773 198.400,171.521 198.400 C 171.269 198.400,170.779 198.155,170.431 197.857 C 170.084 197.558,169.214 197.117,168.498 196.877 C 159.708 193.930,153.393 183.340,153.425 171.600 C 153.442 165.439,154.229 162.677,157.968 155.666 C 158.459 154.745,163.862 149.174,165.600 147.796 C 166.853 146.803,171.863 144.087,173.294 143.624 C 174.116 143.359,174.892 142.975,175.018 142.771 C 175.144 142.567,175.696 142.400,176.243 142.400 C 176.791 142.400,177.748 142.137,178.368 141.816 C 178.989 141.495,181.350 140.956,183.615 140.617 C 185.879 140.278,187.822 139.911,187.933 139.801 C 188.438 139.296,200.699 139.638,203.947 140.248 " stroke="none" fill="#fbfafb" fill-rule="evenodd"></path></g></svg>